<svg width="31" height="34" viewBox="0 0 31 34" fill="none" xmlns="http://www.w3.org/2000/svg">
<path d="M3.39014 8.25546H8.25562V11.7308H3.39014V8.25546Z" stroke="#C9FFC0" stroke-width="2.45343" stroke-miterlimit="10" stroke-linecap="round" stroke-linejoin="round"/>
<path d="M3.39014 15.2061H8.25562V31.8878H3.39014V15.2061Z" stroke="#C9FFC0" stroke-width="2.45343" stroke-miterlimit="10" stroke-linecap="round" stroke-linejoin="round"/>
<path d="M29.1077 15.2061C29.1077 16.1931 28.8505 17.1384 28.3848 17.9864H12.4538C11.9881 17.1384 11.731 16.1931 11.731 15.2061C11.731 11.3694 15.6233 8.25546 20.4193 8.25546C25.2153 8.25546 29.1077 11.3693 29.1077 15.2061Z" stroke="#C9FFC0" stroke-width="2.45343" stroke-miterlimit="10" stroke-linecap="round" stroke-linejoin="round"/>
<path d="M29.4551 17.9864V31.8878H23.1995V26.2647C23.1995 25.8546 23.0744 25.4515 22.8519 25.1039L20.8779 22.1499L20.4192 21.4618L19.9604 22.1499L17.9865 25.1039C17.764 25.4515 17.6389 25.8546 17.6389 26.2647V31.8878H11.3833V17.9864H29.4551Z" stroke="#C9FFC0" stroke-width="2.45343" stroke-miterlimit="10" stroke-linecap="round" stroke-linejoin="round"/>
<path d="M5.82288 2L3.39014 8.25562H8.25562L5.82288 2Z" stroke="#C9FFC0" stroke-width="2.45343" stroke-miterlimit="10" stroke-linecap="round" stroke-linejoin="round"/>
<path d="M9.64575 11.7308L8.25562 15.2061H3.39014L2 11.7308H9.64575Z" stroke="#C9FFC0" stroke-width="2.45343" stroke-miterlimit="10" stroke-linecap="round" stroke-linejoin="round"/>
<path d="M20.4194 8.25562C21.1872 8.25562 21.8096 7.63323 21.8096 6.86548C21.8096 6.09773 21.1872 5.47534 20.4194 5.47534C19.6517 5.47534 19.0293 6.09773 19.0293 6.86548C19.0293 7.63323 19.6517 8.25562 20.4194 8.25562Z" stroke="#C9FFC0" stroke-width="2.45343" stroke-miterlimit="10" stroke-linecap="round" stroke-linejoin="round"/>
<path d="M23.1997 26.2647V31.8878H17.6392V26.2647C17.6392 25.8546 17.7643 25.4514 17.9867 25.1039L19.9607 22.1498L20.4194 21.4617L20.8782 22.1498L22.8522 25.1039C23.0746 25.4514 23.1997 25.8546 23.1997 26.2647V26.2647Z" stroke="#C9FFC0" stroke-width="2.45343" stroke-miterlimit="10" stroke-linecap="round" stroke-linejoin="round"/>
</svg>
