<svg width="31" height="31" viewBox="0 0 31 31" fill="none" xmlns="http://www.w3.org/2000/svg">
<path fill-rule="evenodd" clip-rule="evenodd" d="M17.05 10.85C17.05 9.99396 16.356 9.3 15.5 9.3C14.644 9.3 13.95 9.99396 13.95 10.85V15.5C13.95 15.9111 14.1133 16.3053 14.404 16.596L17.504 19.696C18.1093 20.3013 19.0907 20.3013 19.696 19.696C20.3013 19.0907 20.3013 18.1093 19.696 17.504L17.05 14.858V10.85ZM15.5 3.1C23.2044 3.1 29.45 9.34563 29.45 17.05C29.45 24.7544 23.2044 31 15.5 31C7.79563 31 1.55 24.7544 1.55 17.05C1.55 9.34563 7.79563 3.1 15.5 3.1ZM15.5 6.2C9.50771 6.2 4.65 11.0577 4.65 17.05C4.65 23.0423 9.50771 27.9 15.5 27.9C21.4923 27.9 26.35 23.0423 26.35 17.05C26.35 11.0577 21.4923 6.2 15.5 6.2ZM23.704 0.453984C24.3093 -0.151328 25.2907 -0.151328 25.896 0.453984L30.546 5.10398C31.1513 5.7093 31.1513 6.6907 30.546 7.29601C29.9407 7.90133 28.9593 7.90133 28.354 7.29601L23.704 2.64602C23.0987 2.0407 23.0987 1.0593 23.704 0.453984ZM7.29601 0.453984C7.90133 1.0593 7.90133 2.0407 7.29601 2.64602L2.64602 7.29601C2.0407 7.90133 1.0593 7.90133 0.453984 7.29601C-0.151328 6.6907 -0.151328 5.7093 0.453984 5.10398L5.10398 0.453984C5.7093 -0.151328 6.6907 -0.151328 7.29601 0.453984Z" fill="#888888"/>
</svg>
