<svg width="81" height="160" viewBox="0 0 81 160" fill="none" xmlns="http://www.w3.org/2000/svg">
<path d="M92.9277 112.084C123.879 112.084 148.97 86.993 148.97 56.0419C148.97 25.0908 123.879 0 92.9277 0C61.9766 0 36.8857 25.0908 36.8857 56.0419C36.8857 86.993 61.9766 112.084 92.9277 112.084Z" fill="#E5EFEF"/>
<path d="M46.9108 46.9188C49.1571 42.2773 50.3049 37.181 50.2655 32.0247C50.2655 17.2166 30.3693 5.2132 30.3693 5.2132C30.3693 5.2132 10.4731 17.2166 10.4731 32.0247C10.4337 37.181 11.5816 42.2773 13.8278 46.9188H46.9108Z" fill="#E66353" stroke="#4C241D" stroke-width="5.2132" stroke-linecap="round" stroke-linejoin="round"/>
<path d="M16.0332 46.9188H44.7058V112.084H16.0332V46.9188Z" fill="#FC8C29" stroke="#4C241D" stroke-width="5.2132" stroke-linecap="round" stroke-linejoin="round"/>
<path d="M106.323 80.8046C110.246 76.1618 112.422 70.2941 112.477 64.2162C112.477 47.7269 75.9846 34.3602 75.9846 34.3602C75.9846 34.3602 39.4922 47.7269 39.4922 64.2162C39.5468 70.2941 41.7237 76.1618 45.6464 80.8046H106.323Z" fill="#E66353" stroke="#4C241D" stroke-width="5.2132" stroke-linecap="round" stroke-linejoin="round"/>
<path d="M139.847 101.657H69.4685C67.3091 101.657 65.5586 103.408 65.5586 105.567C65.5586 107.727 67.3091 109.477 69.4685 109.477H139.847C142.006 109.477 143.757 107.727 143.757 105.567C143.757 103.408 142.006 101.657 139.847 101.657Z" fill="white" stroke="#4C241D" stroke-width="5.2132" stroke-linecap="round" stroke-linejoin="round"/>
<path d="M111.174 80.8046H40.7956C38.6363 80.8046 36.8857 82.5552 36.8857 84.7145C36.8857 86.8739 38.6363 88.6244 40.7956 88.6244H111.174C113.333 88.6244 115.084 86.8739 115.084 84.7145C115.084 82.5552 113.333 80.8046 111.174 80.8046Z" fill="white" stroke="#4C241D" stroke-width="5.2132" stroke-linecap="round" stroke-linejoin="round"/>
<path d="M44.7056 88.6244H107.264V156.396H44.7056V88.6244Z" fill="#FC8C29" stroke="#4C241D" stroke-width="5.2132" stroke-linecap="round" stroke-linejoin="round"/>
<path d="M16.0332 119.904H44.7058V156.396H16.0332V119.904Z" fill="#FC8C29" stroke="#4C241D" stroke-width="5.2132" stroke-linecap="round" stroke-linejoin="round"/>
<path d="M83.8046 156.396H68.165V109.477L75.9848 101.657L83.8046 109.477V156.396Z" fill="#FFCE56" stroke="#4C241D" stroke-width="5.2132" stroke-linecap="round" stroke-linejoin="round"/>
<path d="M75.9849 33.8858V23.4594" stroke="#4C241D" stroke-width="5.2132" stroke-linejoin="round"/>
<path d="M76.4824 9.54015C74.7195 10.6345 73.4636 12.3843 72.9909 14.4047C72.5182 16.425 72.8674 18.5504 73.9618 20.3132C75.0561 22.0761 76.806 23.332 78.8263 23.8047C80.8467 24.2774 82.972 23.9282 84.7349 22.8338" stroke="#4C241D" stroke-width="5.2132" stroke-linecap="round" stroke-linejoin="round"/>
<path d="M14.7297 112.084H44.7056V119.904H14.7297C13.6928 119.904 12.6983 119.492 11.965 118.758C11.2318 118.025 10.8198 117.031 10.8198 115.994C10.8198 114.957 11.2318 113.962 11.965 113.229C12.6983 112.496 13.6928 112.084 14.7297 112.084Z" fill="white" stroke="#4C241D" stroke-width="5.2132" stroke-linecap="round" stroke-linejoin="round"/>
<path d="M57.7388 88.6244V127.723" stroke="#4C241D" stroke-width="5.2132" stroke-linecap="round" stroke-linejoin="round"/>
<path d="M26.4595 119.904V132.937" stroke="#4C241D" stroke-width="5.2132" stroke-linecap="round" stroke-linejoin="round"/>
<path d="M34.2793 119.904V132.937" stroke="#4C241D" stroke-width="5.2132" stroke-linecap="round" stroke-linejoin="round"/>
<path d="M26.4595 99.0508V112.084" stroke="#4C241D" stroke-width="5.2132" stroke-linecap="round" stroke-linejoin="round"/>
<path d="M34.2793 99.0508V112.084" stroke="#4C241D" stroke-width="5.2132" stroke-linecap="round" stroke-linejoin="round"/>
<path d="M148.97 156.396H3" stroke="#4C241D" stroke-width="5.2132" stroke-linecap="round" stroke-linejoin="round"/>
</svg>
